<?xml version="1.0" encoding="UTF-8"?>
<svg version="1.1" xmlns="http://www.w3.org/2000/svg" width="280" height="280">
<path d="M0 0 C4.7344316 1.91391916 7.72684393 5.45368786 10 10 C10.203125 12.20703125 10.203125 12.20703125 10.25 14.8125 C10.27578125 15.66457031 10.3015625 16.51664063 10.328125 17.39453125 C9.13181574 26.89379648 -2.12676262 33.59719441 -9.21826172 39.11987305 C-9.80623535 39.57531494 -10.39420898 40.03075684 -11 40.5 C-24.69380696 50.11997502 -24.69380696 50.11997502 -32.43359375 64.125 C-32.44418687 69.20969748 -31.49148148 72.0827281 -28 76 C-23.53677686 79.48064789 -19.27218819 81.89112472 -14 84 C-13.67 72.12 -13.34 60.24 -13 48 C0.69955909 52.5665197 9.8759093 59.11273014 20 69 C20.63421875 69.57234375 21.2684375 70.1446875 21.921875 70.734375 C34.01600743 81.90704972 47.11583453 100.83792167 51 117 C50.505 118.485 50.505 118.485 50 120 C43.19998563 117.74176102 36.40074737 115.48119734 29.60205078 113.21899414 C27.2877771 112.44924871 24.97332443 111.68004118 22.65869141 110.91137695 C19.3370958 109.8082089 16.01614279 108.70312566 12.6953125 107.59765625 C11.65569366 107.25283707 10.61607483 106.90801788 9.54495239 106.55274963 C8.58410736 106.23249313 7.62326233 105.91223663 6.63330078 105.58227539 C5.78502716 105.30025772 4.93675354 105.01824005 4.06277466 104.72767639 C2 104 2 104 0 103 C0.02442673 103.77372452 0.04885345 104.54744904 0.07402039 105.34461975 C0.29493575 112.65608344 0.46213711 119.96591859 0.56993389 127.27985477 C0.62722211 131.03983046 0.70482079 134.79703798 0.82983398 138.55541992 C0.94985531 142.18668418 1.01521769 145.81529773 1.04364967 149.44839287 C1.06389185 150.83020219 1.10343082 152.21187466 1.16303062 153.59254646 C1.34317845 157.94095921 1.3226014 161.83564489 0 166 C-3.41990197 169.41871006 -7.94965671 173 -13 173 C-13 148.25 -13 123.5 -13 98 C-14.65 97.67 -16.3 97.34 -18 97 C-28.71367236 92.53596985 -39.5679563 86.99918391 -44.359375 75.8046875 C-47.0738457 68.15782491 -46.3728197 61.2853362 -43.43359375 53.8203125 C-37.60646368 42.35658522 -25.08179788 33.67823405 -15.05859375 25.93359375 C-14.42074951 25.44044678 -13.78290527 24.9472998 -13.12573242 24.43920898 C-11.90433685 23.50205853 -10.6768822 22.57273576 -9.44262695 21.65258789 C-6.46653895 19.38531922 -4.29076075 17.57441439 -3 14 C-5.84206609 12.66968118 -5.84206609 12.66968118 -7.82739258 13.85766602 C-8.50954834 14.31842529 -9.1917041 14.77918457 -9.89453125 15.25390625 C-11.06508057 16.03133179 -11.06508057 16.03133179 -12.25927734 16.82446289 C-13.52312256 17.68479126 -13.52312256 17.68479126 -14.8125 18.5625 C-16.61246326 19.76164542 -18.41327678 20.95951532 -20.21484375 22.15625 C-21.1569873 22.7853125 -22.09913086 23.414375 -23.06982422 24.0625 C-27.96165091 27.29708895 -32.91899437 30.42749366 -37.875 33.5625 C-39.68530981 34.708982 -41.49522873 35.85608154 -43.3046875 37.00390625 C-44.1203418 37.51969238 -44.93599609 38.03547852 -45.77636719 38.56689453 C-47.69848787 39.80567894 -49.57325923 41.09006547 -51.4453125 42.40234375 C-54 44 -54 44 -57 44 C-55.45615972 40.31005209 -53.21186057 37.9760549 -50.375 35.1875 C-49.14910156 33.97126953 -49.14910156 33.97126953 -47.8984375 32.73046875 C-45.71118182 30.66996778 -43.50452015 28.70104898 -41.2265625 26.74609375 C-35.73840201 21.98162541 -30.74687184 16.72968422 -25.7109375 11.49609375 C-17.79752341 3.43311342 -11.71851146 -1.67670526 0 0 Z M0 69 C0 75.93 0 82.86 0 90 C13.86 94.455 13.86 94.455 28 99 C23.0105211 86.52630274 11.4685168 75.55343817 0 69 Z " fill="#454547" transform="translate(143,16)"/>
<path d="M0 0 C4.62 0 9.24 0 14 0 C17.22458013 3.59714118 18.7860033 5.79954462 20.75 10 C21.71918214 11.87747325 22.69288808 13.75262065 23.671875 15.625 C24.0750293 16.46289062 24.47818359 17.30078125 24.89355469 18.1640625 C25.25868164 18.76992187 25.62380859 19.37578125 26 20 C26.66 20 27.32 20 28 20 C29.19394579 18.08377903 29.19394579 18.08377903 30.328125 15.625 C30.79992187 14.72265625 31.27171875 13.8203125 31.7578125 12.890625 C32.74292652 10.98228893 33.69193367 9.05482394 34.6015625 7.109375 C36.078125 4.375 36.078125 4.375 40 0 C44.62 0 49.24 0 54 0 C54 17.82 54 35.64 54 54 C49.71 54 45.42 54 41 54 C40.67 44.1 40.34 34.2 40 24 C34.06 32.91 34.06 32.91 28 42 C24.0924054 40.0462027 23.36143601 39.52895744 21.203125 36.0859375 C20.54812012 35.05799072 20.54812012 35.05799072 19.87988281 34.00927734 C19.34202148 33.13996582 18.80416016 32.2706543 18.25 31.375 C16.5175 28.61125 14.785 25.8475 13 23 C12.67 33.23 12.34 43.46 12 54 C8.04 54 4.08 54 0 54 C0 36.18 0 18.36 0 0 Z " fill="#454547" transform="translate(24,209)"/>
<path d="M0 0 C12 0 12 0 14.82421875 1.984375 C15.74654297 3.35335937 15.74654297 3.35335937 16.6875 4.75 C17.75291016 6.25046875 17.75291016 6.25046875 18.83984375 7.78125 C19.90912109 9.37453125 19.90912109 9.37453125 21 11 C22.57499292 13.08964579 24.1582355 15.17310135 25.75 17.25 C28.89195487 21.4625469 31.94405168 25.72167236 35 30 C35.33 20.1 35.66 10.2 36 0 C40.29 0 44.58 0 49 0 C49 17.82 49 35.64 49 54 C37 54 37 54 33.08203125 50.484375 C31.952504 48.93440529 30.86295545 47.35461249 29.8125 45.75 C29.27431641 44.99203125 28.73613281 44.2340625 28.18164062 43.453125 C26.43131405 40.98497941 24.71645856 38.49181776 23 36 C20.03 32.04 17.06 28.08 14 24 C13.67 33.9 13.34 43.8 13 54 C8.71 54 4.42 54 0 54 C0 36.18 0 18.36 0 0 Z " fill="#454547" transform="translate(115,209)"/>
<path d="M0 0 C6.55957522 6.14024165 9.08337593 12.32764511 9.5625 21.25 C9.33359917 29.47135481 6.60169542 36.3276831 0.80859375 42.234375 C-7.76103491 49.25248037 -16.1658719 49.88785905 -27 49 C-35.17794143 47.19349706 -40.64631992 42.90612546 -45.31640625 36.07421875 C-49.37983089 28.55617524 -49.486692 19.15888975 -47.15234375 11.05859375 C-43.92640427 3.89591457 -38.56093475 -1.52938682 -31.4375 -4.875 C-20.81259547 -8.35224148 -8.71897844 -7.52459784 0 0 Z M-30.44140625 9.43359375 C-34.43244094 13.99315191 -35.41484387 17.69831512 -35.34765625 23.58203125 C-34.59652849 28.80616705 -31.63607357 32.6653084 -27.625 35.9375 C-22.77230424 37.90168638 -18.81284564 38.5108008 -13.8125 36.875 C-9.18368928 34.90529331 -7.06520124 32.02388236 -4.75 27.625 C-3.31702628 22.60959196 -3.5100359 18.55354451 -5.625 13.8125 C-7.77527101 9.94650752 -9.93084896 7.91941087 -14 6 C-20.41531969 4.34146134 -25.48705588 4.50609623 -30.44140625 9.43359375 Z " fill="#464648" transform="translate(247,215)"/>
<path d="M0 0 C9 2 9 2 13 3 C13.2556161 10.31011473 13.45067637 17.61925747 13.56993389 24.93294621 C13.62719714 28.32987536 13.70473614 31.72373485 13.82983398 35.11889648 C13.97295951 39.02809974 14.02571821 42.93609018 14.07421875 46.84765625 C14.13099289 48.05833267 14.18776703 49.26900909 14.2462616 50.51637268 C14.24880592 54.00945305 14.13654842 56.69283362 13 60 C9.56418734 63.32171181 4.9909711 67 0 67 C0 44.89 0 22.78 0 0 Z " fill="#454547" transform="translate(130,122)"/>
<path d="M0 0 C4.29 0 8.58 0 13 0 C13 17.82 13 35.64 13 54 C8.71 54 4.42 54 0 54 C0 36.18 0 18.36 0 0 Z " fill="#464647" transform="translate(176,209)"/>
<path d="M0 0 C4.29 0 8.58 0 13 0 C13 17.82 13 35.64 13 54 C8.71 54 4.42 54 0 54 C0 36.18 0 18.36 0 0 Z " fill="#464648" transform="translate(90,209)"/>
<path d="M0 0 C3.1827991 1.48872861 4.7880313 2.68204696 6.75 5.625 C7.17796875 6.25664062 7.6059375 6.88828125 8.046875 7.5390625 C8.36140625 8.02117188 8.6759375 8.50328125 9 9 C6.72076848 11.45919489 4.32803181 13.18854315 1.4921875 14.96875 C0.59540283 15.53513184 -0.30138184 16.10151367 -1.2253418 16.68505859 C-2.66067261 17.58345459 -2.66067261 17.58345459 -4.125 18.5 C-6.11377979 19.75181247 -8.10205502 21.00442688 -10.08984375 22.2578125 C-11.08226074 22.88333008 -12.07467773 23.50884766 -13.09716797 24.15332031 C-15.79122235 25.867183 -18.46449172 27.60769816 -21.12890625 29.3671875 C-21.90282715 29.87701172 -22.67674805 30.38683594 -23.47412109 30.91210938 C-24.92197802 31.86904283 -26.366472 32.831089 -27.80712891 33.79882812 C-32.66839257 37 -32.66839257 37 -36 37 C-34.45615972 33.31005209 -32.21186057 30.9760549 -29.375 28.1875 C-28.55773437 27.37667969 -27.74046875 26.56585938 -26.8984375 25.73046875 C-24.70001087 23.6594442 -22.48122432 21.67304975 -20.1953125 19.703125 C-15.76123854 15.85171034 -11.62644584 11.73861603 -7.5 7.5625 C-6.77296875 6.83095703 -6.0459375 6.09941406 -5.296875 5.34570312 C-3.52890501 3.56610176 -1.76333622 1.78419082 0 0 Z " fill="#F04620" transform="translate(122,23)"/>
<path d="M0 0 C4.60853797 0.72008406 8.67237409 2.31295939 13 4 C13 6.31 13 8.62 13 11 C8.428721 10.45144652 4.32564205 9.58255197 0 8 C0 5.36 0 2.72 0 0 Z " fill="#161513" transform="translate(130,114)"/>
</svg>
